<svg width="140" height="111" fill="none" xmlns="http://www.w3.org/2000/svg"><path d="M58.544 32.328V0a143016.645 143016.645 0 0 1-3.8 26.466l-.052.353-.353.057a28.835 28.835 0 0 0-13.902 6.37l-.282.237-.307-.204-9.909-6.653-1.701-1.142 7.779 11.855.188.286-.208.273a28.53 28.53 0 0 0-5.443 12.594l-.058.351-.354.052L.275 55.238l-.275.04 30.142 4.387.354.05.058.35a28.532 28.532 0 0 0 5.444 12.595l.207.273-.188.287-6.066 9.244-1.713 2.61 3.854-2.586 7.756-5.208.307-.205.282.237a28.783 28.783 0 0 0 7.361 4.489 28.75 28.75 0 0 0 6.541 1.879l.353.056.052.354a80667.588 80667.588 0 0 1 3.8 26.466V78.231C46.086 77.97 36.03 67.82 36.03 55.38v-.204c0-12.44 10.055-22.59 22.513-22.85Zm-24.898-1.232c2.46 1.895 4.92 3.79 7.378 5.686a27.036 27.036 0 0 0-1.479 1.751 12898 12898 0 0 0-5.899-7.437Zm.26 26.11L14.93 55.279l18.976-1.926a28.25 28.25 0 0 0-.059 1.804v.243c0 .607.02 1.209.059 1.806Zm7.172 16.628-7.6 5.951c2.02-2.589 4.042-5.177 6.063-7.765.485.627.997 1.232 1.537 1.817v-.003Z" fill="#E32528"/><path d="m66.76 55.14-6.735-12.152c-.34-.606-.687-1.014-1.037-1.223a2.526 2.526 0 0 0-1.304-.316h-1.2c-.403-.008-.8.102-1.14.316-.326.21-.658.618-.996 1.223L47.673 55.14a.418.418 0 0 0-.051.334c.034.087.14.132.318.132h2.649a.495.495 0 0 0 .468-.264l1.403-2.607h9.563l1.437 2.606c.081.176.237.263.468.263h2.585c.162 0 .26-.044.294-.131a.418.418 0 0 0-.046-.333Zm-13.022-4.748 3.193-5.924a.25.25 0 0 1 .225-.142h.12a.252.252 0 0 1 .225.142l3.236 5.924h-7ZM82.347 41.452H66.453c-.311 0-.468.149-.468.445v1.98c0 .317.157.466.468.466h6.39V55.16c0 .296.149.445.447.445h2.218c.299 0 .448-.148.448-.445V44.343h6.39c.311 0 .468-.155.468-.465v-1.981c0-.296-.156-.445-.467-.445ZM99.865 52.734h-8.24a5.481 5.481 0 0 1-1.313-.13 1.704 1.704 0 0 1-.823-.445 1.8 1.8 0 0 1-.439-.85 5.737 5.737 0 0 1-.132-1.344v-8.069c0-.295-.15-.443-.447-.444h-2.198c-.318 0-.467.149-.467.445v8.37c0 .97.106 1.796.318 2.477.18.63.524 1.202.997 1.657.5.45 1.105.766 1.76.92.72.19 1.594.284 2.626.284h8.361c.299 0 .45-.149.45-.445v-1.982c-.003-.296-.154-.444-.453-.444ZM121.272 55.14l-6.735-12.152c-.339-.606-.685-1.014-1.038-1.223a2.517 2.517 0 0 0-1.302-.316h-1.2a2.069 2.069 0 0 0-1.14.316c-.325.21-.657.618-.997 1.223l-6.675 12.151a.412.412 0 0 0-.051.334c.034.087.139.132.318.132h2.649a.491.491 0 0 0 .467-.264l1.405-2.607h9.563l1.439 2.606c.083.176.238.263.47.263h2.583c.163 0 .262-.044.295-.131a.415.415 0 0 0-.051-.333Zm-13.024-4.748 3.196-5.924a.251.251 0 0 1 .224-.142h.122a.248.248 0 0 1 .224.142l3.235 5.924h-7.001ZM138.244 48.114c-.598-.6-1.487-.9-2.666-.9h-7.629c-.706 0-1.06-.377-1.06-1.132v-.688c-.016-.296.07-.588.244-.829.164-.202.441-.303.835-.303h10.191c.298 0 .447-.148.447-.445v-1.92c0-.296-.149-.444-.447-.445h-10.782c-1.234 0-2.143.303-2.727.909-.583.606-.875 1.401-.875 2.386v1.474c0 1.118.298 1.977.895 2.578.596.6 1.485.9 2.666.9h7.629c.707 0 1.06.377 1.06 1.131v.83c.016.296-.07.589-.245.83-.162.2-.44.302-.834.302h-10.682c-.318 0-.468.148-.468.445v1.921c0 .296.155.444.468.444h11.272c1.234 0 2.144-.303 2.728-.91.584-.607.876-1.403.875-2.386v-1.614c0-1.118-.299-1.978-.895-2.578ZM56.626 66.142h-5.287a3.539 3.539 0 0 1-.843-.084 1.095 1.095 0 0 1-.53-.286 1.14 1.14 0 0 1-.28-.544 3.642 3.642 0 0 1-.086-.863v-5.177a.249.249 0 0 0-.072-.213.253.253 0 0 0-.214-.071h-1.412c-.2 0-.3.095-.3.284v5.37a5.446 5.446 0 0 0 .203 1.589c.113.404.333.771.636 1.063.32.288.709.492 1.13.592a6.727 6.727 0 0 0 1.684.181h5.364a.257.257 0 0 0 .278-.17.251.251 0 0 0 .01-.116v-1.271a.251.251 0 0 0-.167-.272.257.257 0 0 0-.114-.012ZM69.787 60.745a2.329 2.329 0 0 0-.636-1.052 2.633 2.633 0 0 0-1.137-.596 6.535 6.535 0 0 0-1.695-.189h-4.025a6.46 6.46 0 0 0-1.683.189c-.42.103-.809.307-1.13.596-.3.29-.52.652-.636 1.052a5.379 5.379 0 0 0-.202 1.58v2.23a5.442 5.442 0 0 0 .202 1.59c.114.404.334.77.636 1.063.321.288.71.492 1.13.592a6.722 6.722 0 0 0 1.683.18h4.034a6.8 6.8 0 0 0 1.695-.18c.423-.1.814-.303 1.137-.592.305-.291.524-.658.636-1.063a5.606 5.606 0 0 0 .196-1.59v-2.23a5.548 5.548 0 0 0-.206-1.58Zm-1.802 3.671a3.56 3.56 0 0 1-.086.85c-.042.203-.139.39-.28.544-.145.144-.329.243-.53.286a3.477 3.477 0 0 1-.847.086h-3.877a3.466 3.466 0 0 1-.847-.086 1.08 1.08 0 0 1-.53-.286 1.163 1.163 0 0 1-.28-.544 3.569 3.569 0 0 1-.085-.85v-1.945a3.58 3.58 0 0 1 .084-.85c.044-.203.14-.391.28-.545.147-.142.33-.241.53-.285.279-.063.563-.091.848-.085h3.877c.285-.006.57.022.848.084.2.045.383.144.53.286.14.154.236.342.28.545.062.279.09.564.085.85v1.945ZM74.231 61.666c.045-.2.142-.386.281-.538.147-.142.33-.241.53-.286.278-.061.563-.09.847-.083h6.537c.192 0 .287-.105.287-.3v-1.27a.249.249 0 0 0-.072-.214.252.252 0 0 0-.215-.071h-6.62a6.456 6.456 0 0 0-1.684.188 2.63 2.63 0 0 0-1.13.596c-.3.29-.52.653-.635 1.053a5.309 5.309 0 0 0-.204 1.58v2.23a5.362 5.362 0 0 0 .204 1.59c.114.404.333.77.636 1.063.32.288.709.491 1.13.592a6.724 6.724 0 0 0 1.683.18h5.274c.522 0 .923-.149 1.202-.448.279-.299.418-.811.417-1.537V62.97c0-.258-.13-.389-.39-.389h-5.445c-.192 0-.288.1-.288.298v.973c0 .199.097.299.288.299h3.824c.106 0 .157.056.157.168v1.053c0 .295-.05.5-.157.617-.106.117-.269.175-.496.175h-4.307a3.526 3.526 0 0 1-.847-.084 1.106 1.106 0 0 1-.53-.286 1.174 1.174 0 0 1-.281-.545 3.652 3.652 0 0 1-.084-.863v-1.868a3.563 3.563 0 0 1 .088-.85ZM86.707 58.904h-1.41c-.2 0-.3.095-.3.284v8.51c0 .19.105.286.3.286h1.41a.258.258 0 0 0 .215-.072.253.253 0 0 0 .073-.214v-8.51a.252.252 0 0 0-.172-.274.255.255 0 0 0-.116-.01ZM98.509 63.178c-.383-.385-.954-.578-1.71-.577h-4.895c-.454 0-.68-.242-.68-.727v-.441a.82.82 0 0 1 .156-.527c.106-.13.283-.194.53-.194h6.54a.255.255 0 0 0 .289-.286v-1.233a.25.25 0 0 0-.172-.274.256.256 0 0 0-.116-.01h-6.913c-.792 0-1.375.194-1.75.583-.373.39-.56.9-.56 1.531v.948c0 .718.19 1.27.574 1.655.382.385.952.577 1.71.576h4.9c.454 0 .68.243.68.727v.526a.827.827 0 0 1-.157.527c-.106.13-.283.195-.53.195H89.55c-.2 0-.3.095-.3.285v1.231c0 .19.1.287.3.287h7.233c.792 0 1.375-.195 1.75-.585.373-.388.562-.899.562-1.53v-1.037c-.007-.716-.202-1.266-.586-1.65ZM111.16 58.904h-10.191c-.201 0-.3.095-.3.284v1.272a.26.26 0 0 0 .075.224.264.264 0 0 0 .225.075h4.1v6.939a.25.25 0 0 0 .17.275.255.255 0 0 0 .116.011h1.424a.255.255 0 0 0 .286-.286v-6.94h4.101a.267.267 0 0 0 .3-.298v-1.272c-.008-.19-.106-.284-.306-.284ZM114.985 58.904h-1.408c-.202 0-.301.095-.301.284v8.51c0 .19.099.286.301.286h1.409a.255.255 0 0 0 .287-.286v-8.51a.251.251 0 0 0-.072-.214.252.252 0 0 0-.216-.07ZM119.639 61.666c.044-.2.141-.386.28-.538a1.11 1.11 0 0 1 .53-.286c.277-.06.559-.089.842-.083h5.809c.192 0 .288-.105.288-.3v-1.27a.256.256 0 0 0-.288-.284h-5.888a6.466 6.466 0 0 0-1.684.187c-.42.103-.808.308-1.129.596a2.38 2.38 0 0 0-.636 1.053 5.302 5.302 0 0 0-.203 1.58v2.23a5.372 5.372 0 0 0 .203 1.59c.114.403.333.77.636 1.063.321.288.709.491 1.129.592a6.728 6.728 0 0 0 1.684.18h5.888a.255.255 0 0 0 .288-.286v-1.27a.24.24 0 0 0-.011-.116.245.245 0 0 0-.161-.16.254.254 0 0 0-.116-.01h-5.809a3.53 3.53 0 0 1-.842-.084 1.109 1.109 0 0 1-.53-.285 1.168 1.168 0 0 1-.28-.544 3.74 3.74 0 0 1-.084-.864v-1.842c-.005-.285.023-.57.084-.849ZM138.563 63.178c-.383-.385-.953-.578-1.71-.577h-4.895c-.453 0-.68-.242-.679-.727v-.441a.814.814 0 0 1 .157-.527c.106-.13.283-.194.535-.194h6.541a.257.257 0 0 0 .215-.072.25.25 0 0 0 .072-.214v-1.233a.25.25 0 0 0-.072-.213.256.256 0 0 0-.215-.07h-6.923c-.791 0-1.374.194-1.749.582-.374.39-.561.9-.561 1.531v.948c0 .718.191 1.27.574 1.655.383.385.953.577 1.71.577h4.9c.454 0 .68.242.68.726v.526a.833.833 0 0 1-.156.527c-.106.13-.283.195-.53.195h-6.854c-.202 0-.301.095-.301.285v1.231c0 .191.099.287.301.287h7.231c.792 0 1.378-.195 1.751-.585.373-.389.561-.899.561-1.53v-1.037c-.005-.716-.199-1.266-.583-1.65Z" fill="#E32528"/></svg>