<svg width="220" height="62" fill="none" xmlns="http://www.w3.org/2000/svg"><g clip-path="url(#a)"><path d="M218.646 53.83c0-3.44-2.404-5.958-5.715-5.958-3.305 0-5.711 2.518-5.711 5.957 0 3.433 2.406 5.947 5.711 5.947 3.311 0 5.715-2.518 5.715-5.947Zm-7.216.305v3.89h-1.239v-8.58h3.078c1.804 0 2.632.8 2.632 2.358 0 .96-.639 1.72-1.463 1.83v.037c.715.116.978.763 1.125 1.948.113.767.262 2.098.532 2.41h-1.466c-.341-.806-.306-1.947-.569-2.903-.217-.727-.599-.992-1.42-.992h-1.203v.004l-.007-.002Zm1.536-1.11c1.203 0 1.546-.65 1.546-1.223 0-.678-.343-1.214-1.546-1.214h-1.536v2.44h1.536v-.002Zm-7.109.804c0-4.237 3.315-7.1 7.069-7.1 3.764 0 7.075 2.863 7.075 7.1 0 4.229-3.309 7.095-7.075 7.095-3.754 0-7.069-2.866-7.069-7.095ZM181.359 59.687l-8.149-9.273-8.078 9.273h-16.998l16.613-18.937-16.613-18.942h17.528l8.232 9.202 7.922-9.202h16.915l-16.53 18.863 16.759 19.016h-17.601Zm-65.864 0V.016h32.639v13.3H129.32v8.492h18.814v12.798H129.32v11.747h18.814v13.334h-32.639Z" fill="#FF5A00"/><path d="M101.721.016v24.42h-.153c-3.048-3.554-6.858-4.793-11.276-4.793-9.053 0-15.873 6.248-18.267 14.503-2.73-9.097-9.772-14.673-20.21-14.673-8.48 0-15.173 3.86-18.67 10.152v-7.818H15.621v-8.49h19.126V.02H0v59.668h15.621v-25.08h15.57c-.48 1.928-.72 3.91-.713 5.9 0 12.44 9.37 21.183 21.334 21.183 10.056 0 16.69-4.795 20.194-13.523H58.618c-1.81 2.626-3.184 3.402-6.805 3.402-4.196 0-7.818-3.716-7.818-8.116h27.26c1.183 9.884 8.773 18.406 19.19 18.406 4.493 0 8.607-2.242 11.122-6.03h.151v3.866h13.773V.02h-13.77V.016ZM44.429 34.785c.87-3.792 3.768-6.27 7.384-6.27 3.982 0 6.732 2.401 7.454 6.27H44.429Zm48.933 15.821c-5.075 0-8.23-4.797-8.23-9.808 0-5.357 2.745-10.504 8.23-10.504 5.691 0 7.958 5.15 7.958 10.504 0 5.075-2.4 9.808-7.958 9.808Z" fill="#29007C"/></g><defs><clipPath id="a"><path fill="#fff" d="M0 0h220v61.875H0z"/></clipPath></defs></svg>